<?xml version="1.0" encoding="UTF-8"?>
<svg width="1440px" height="175px" viewBox="0 0 1440 175" version="1.1" xmlns="http://www.w3.org/2000/svg" xmlns:xlink="http://www.w3.org/1999/xlink">
    <!-- Generator: sketchtool 52.3 (67297) - http://www.bohemiancoding.com/sketch -->
    <title>AED826AE-346D-4050-BEC0-4E3DC9F2043C</title>
    <desc>Created with sketchtool.</desc>
    <g id="Page-1" stroke="none" stroke-width="1" fill="none" fill-rule="evenodd">
        <g id="Login-(Blue-mode)" transform="translate(0.000000, -724.000000)" fill="#3D2681" fill-rule="nonzero">
            <g id="Login-page" transform="translate(-49.000000, -854.000000)">
                <g id="Wave" transform="translate(0.000000, 1578.000000)">
                    <path d="M692.178902,-632.444957 C753.072758,-568.600869 804.763276,-491.361874 847.250455,-400.727972 C910.981225,-264.77712 656.241418,-121.0511 773.241418,247.547203 C811.97372,369.569946 699.147779,468.829501 743.907489,587.417464 C767.09484,648.850857 890.636076,668.237279 871.907489,757.414163 C859.421764,816.865419 801.845568,830.116583 699.178902,797.167655 L699.178902,-457.557695 L692.178902,-632.444957 Z" id="Path-1" opacity="0.538109189" transform="translate(783.005623, 91.173278) rotate(270.000000) translate(-783.005623, -91.173278) "></path>
                    <path d="M813.636076,-572.933698 C877.366846,-436.982846 622.627039,-293.256825 739.627039,75.3414781 C778.359341,197.36422 665.5334,296.623776 710.29311,415.211739 C733.480461,476.645131 820.110575,586.735067 813.636076,664.903144 C809.319744,717.015195 776.295893,775.368123 714.564522,839.961929 L665.564522,839.961929 L665.564522,-600.038071 C721.791712,-672.60239 771.148897,-663.567599 813.636076,-572.933698 Z" id="Path-2" opacity="0.62702753" transform="translate(744.801297, 95.763226) rotate(270.000000) translate(-744.801297, -95.763226) "></path>
                </g>
            </g>
        </g>
    </g>
</svg>